<?xml version="1.0" encoding="iso-8859-1"?>
<!-- Generator: Adobe Illustrator 19.0.0, SVG Export Plug-In . SVG Version: 6.00 Build 0)  -->
<svg xmlns="http://www.w3.org/2000/svg" xmlns:xlink="http://www.w3.org/1999/xlink" version="1.1" id="Layer_1" x="0px" y="0px" viewBox="0 0 512 512" style="enable-background:new 0 0 512 512;" xml:space="preserve" width="512px" height="512px">
<g>
	<g>
		<path d="M42.672,74.664C36.766,74.664,32,79.445,32,85.336s4.766,10.672,10.672,10.672c5.875,0,10.656-4.781,10.656-10.672    S48.547,74.664,42.672,74.664z" fill="#FFFFFF"/>
	</g>
</g>
<g>
	<g>
		<path d="M74.672,74.664C68.766,74.664,64,79.445,64,85.336s4.766,10.672,10.672,10.672c5.875,0,10.656-4.781,10.656-10.672    S80.547,74.664,74.672,74.664z" fill="#FFFFFF"/>
	</g>
</g>
<g>
	<g>
		<path d="M106.672,74.664C100.766,74.664,96,79.445,96,85.336s4.766,10.672,10.672,10.672c5.875,0,10.656-4.781,10.656-10.672    S112.547,74.664,106.672,74.664z" fill="#FFFFFF"/>
	</g>
</g>
<g>
	<g>
		<path d="M373.328,138.664h-320c-5.875,0-10.656,4.781-10.656,10.672s4.781,10.672,10.656,10.672h319.984c0.016,0,0.016,0,0.016,0    c5.906,0,10.672-4.781,10.672-10.672S379.234,138.664,373.328,138.664z" fill="#FFFFFF"/>
	</g>
</g>
<g>
	<g>
		<path d="M224,181.336H53.328c-5.875,0-10.656,4.766-10.656,10.672c0,5.89,4.781,10.656,10.656,10.656H224    c5.891,0,10.672-4.766,10.672-10.656C234.672,186.102,229.891,181.336,224,181.336z" fill="#FFFFFF"/>
	</g>
</g>
<g>
	<g>
		<path d="M288,224.008H53.328c-5.875,0-10.656,4.766-10.656,10.656s4.781,10.672,10.656,10.672h234.656c0,0,0,0,0.016,0    c5.891,0,10.672-4.781,10.672-10.672S293.891,224.008,288,224.008z" fill="#FFFFFF"/>
	</g>
</g>
<g>
	<g>
		<path d="M202.672,266.664H53.328c-5.875,0-10.656,4.781-10.656,10.672s4.781,10.672,10.656,10.672h149.344    c5.875,0,10.656-4.781,10.656-10.672S208.547,266.664,202.672,266.664z" fill="#FFFFFF"/>
	</g>
</g>
<g>
	<g>
		<path d="M224,309.336H53.328c-5.875,0-10.656,4.766-10.656,10.672c0,5.891,4.781,10.656,10.656,10.656h170.656c0,0,0,0,0.016,0    c5.891,0,10.672-4.766,10.672-10.656S229.891,309.336,224,309.336z" fill="#FFFFFF"/>
	</g>
</g>
<g>
	<g>
		<path d="M138.672,352.008H53.328c-5.875,0-10.656,4.766-10.656,10.656s4.781,10.672,10.656,10.672h85.344    c5.875,0,10.656-4.781,10.656-10.672S144.547,352.008,138.672,352.008z" fill="#FFFFFF"/>
	</g>
</g>
<g>
	<g>
		<path d="M512,373.336v-64h-26.797c-1.141-3.219-2.438-6.344-3.891-9.391l18.953-18.953l-30.938-30.922V74.664    c0-11.781-9.547-21.328-21.328-21.328H21.328C9.547,53.336,0,62.883,0,74.664v341.344h303.391l30.938,30.922l18.953-18.953    c3.047,1.453,6.172,2.75,9.391,3.891v26.797h64v-26.797c3.203-1.141,6.344-2.438,9.375-3.891l18.969,18.953l45.25-45.25    l-18.953-18.953c1.453-3.047,2.75-6.188,3.891-9.391H512z M21.328,74.664h21.344h32h32H448v21.344H106.672h-32h-32H21.328V74.664z     M296.078,394.664H21.328V117.336H448v125.406l-11.953,11.953c-3.031-1.453-6.172-2.75-9.375-3.891v-26.797h-64v26.797    c-3.219,1.141-6.344,2.438-9.391,3.891l-18.953-18.953l-45.25,45.25l18.938,18.953c-1.438,3.047-2.75,6.172-3.875,9.391h-26.812    v64h26.812c1.125,3.203,2.438,6.344,3.875,9.391L296.078,394.664z M470.109,352.008L470.109,352.008l-5.031,14.218    c-0.875,2.484-1.891,4.938-3.016,7.281l-6.516,13.625l10.688,10.672l3.859,3.875l-15.078,15.078l-3.875-3.875l-10.688-10.672    l-13.609,6.516c-2.344,1.125-4.797,2.141-7.297,3.031l-14.219,5.016v15.094v5.469H384v-5.469v-15.094l-14.219-5.016    c-2.5-0.891-4.953-1.906-7.297-3.031l-13.625-6.516l-10.656,10.672l-3.875,3.875l-15.094-15.078l3.875-3.875l10.672-10.672    l-6.516-13.625c-1.125-2.344-2.125-4.781-3.016-7.281l-5.031-14.219H304.14h-5.469v-21.344h5.469h15.078l5.031-14.219    c0.891-2.5,1.891-4.953,3.016-7.297l6.516-13.609l-10.672-10.672l-3.875-3.875l15.094-15.078l3.875,3.859l10.672,10.672    l13.609-6.516c2.344-1.109,4.797-2.125,7.297-3.016l14.219-5.03v-15.078v-5.469h21.328v5.469v15.078l14.219,5.031    c2.5,0.891,4.953,1.906,7.297,3.016l13.609,6.516l10.688-10.672l3.875-3.859l15.078,15.078l-3.859,3.875l-10.688,10.672    l6.516,13.609c1.125,2.344,2.141,4.797,3.016,7.297l5.031,14.219h15.094h5.469v21.344h-5.469H470.109z" fill="#FFFFFF"/>
	</g>
</g>
<g>
	<g>
		<path d="M394.672,298.664c-23.562,0-42.672,19.109-42.672,42.672s19.109,42.672,42.672,42.672s42.656-19.109,42.656-42.672    S418.234,298.664,394.672,298.664z M394.672,362.664c-11.766,0-21.344-9.562-21.344-21.328s9.578-21.328,21.344-21.328    c11.75,0,21.328,9.562,21.328,21.328S406.422,362.664,394.672,362.664z" fill="#FFFFFF"/>
	</g>
</g>
<g>
</g>
<g>
</g>
<g>
</g>
<g>
</g>
<g>
</g>
<g>
</g>
<g>
</g>
<g>
</g>
<g>
</g>
<g>
</g>
<g>
</g>
<g>
</g>
<g>
</g>
<g>
</g>
<g>
</g>
</svg>
