<?xml version="1.0" encoding="iso-8859-1"?>
<!-- Generator: Adobe Illustrator 18.1.1, SVG Export Plug-In . SVG Version: 6.00 Build 0)  -->
<svg xmlns="http://www.w3.org/2000/svg" xmlns:xlink="http://www.w3.org/1999/xlink" version="1.1" id="Capa_1" x="0px" y="0px" viewBox="0 0 174.239 174.239" style="enable-background:new 0 0 174.239 174.239;" xml:space="preserve" width="512px" height="512px">
<g>
	<path d="M133.48,45.738c-2.764,0-5.481,0.287-8.126,0.851c0.126-1.317,0.192-2.64,0.192-3.962C125.546,19.121,106.423,0,82.919,0   C61.915,0,44.408,15.275,40.922,35.295c-4.22-0.438-8.539,0.156-12.514,1.677c-0.002,0-0.007,0.005-0.007,0.005   c-10.506,4.035-17.562,14.308-17.562,25.562c0,4.293,1.009,8.449,2.895,12.183C6.089,79.618,1.089,88.17,1.089,97.698   c0,15.095,12.283,27.38,27.38,27.38H57.25c4.125,0,7.467-3.345,7.467-7.467s-3.342-7.467-7.467-7.467H28.469   c-6.862,0-12.446-5.581-12.446-12.446c0-6.169,4.653-11.434,10.824-12.246c2.97-0.394,5.416-2.523,6.218-5.406   c0.802-2.888-0.199-5.97-2.54-7.837c-3.021-2.406-4.752-5.931-4.752-9.67c0-5.119,3.211-9.791,7.99-11.624   c0.005,0,0.012-0.005,0.019-0.01c3.33-1.269,7.108-1.07,10.547,0.89c2.409,1.371,5.365,1.303,7.701-0.18   c2.334-1.483,3.661-4.132,3.444-6.889c-0.039-0.496-0.102-0.987-0.17-1.478c-0.029-0.214-0.068-0.428-0.078-0.622   c0-15.27,12.421-27.692,27.692-27.692s27.692,12.421,27.692,27.692c0,5.032-1.395,9.864-4.147,14.366   c-1.911,3.121-1.274,7.171,1.507,9.558c2.776,2.382,6.874,2.397,9.679,0.044c3.201-2.703,8.549-5.921,15.829-5.921   c13.639,0,24.736,11.094,24.736,24.736s-11.097,24.736-24.736,24.736h-16.491c-4.125,0-7.467,3.345-7.467,7.467   s3.342,7.467,7.467,7.467h16.491c21.875,0,39.671-17.798,39.671-39.671S155.354,45.738,133.48,45.738z" fill="#FFFFFF"/>
	<path d="M107.234,136.1L94.59,148.745V77.552c0-4.123-3.342-7.467-7.467-7.467c-4.125,0-7.467,3.345-7.467,7.467v71.192   L67.012,136.1c-2.917-2.917-7.642-2.917-10.559,0c-2.917,2.917-2.917,7.642,0,10.559l25.39,25.392c1.4,1.4,3.299,2.188,5.28,2.188   c1.981,0,3.88-0.788,5.28-2.188l25.392-25.392c2.917-2.917,2.917-7.642,0-10.559C114.877,133.183,110.151,133.183,107.234,136.1z" fill="#FFFFFF"/>
</g>
<g>
</g>
<g>
</g>
<g>
</g>
<g>
</g>
<g>
</g>
<g>
</g>
<g>
</g>
<g>
</g>
<g>
</g>
<g>
</g>
<g>
</g>
<g>
</g>
<g>
</g>
<g>
</g>
<g>
</g>
</svg>
