<?xml version="1.0" encoding="iso-8859-1"?>
<!-- Generator: Adobe Illustrator 18.0.0, SVG Export Plug-In . SVG Version: 6.00 Build 0)  -->
<!DOCTYPE svg PUBLIC "-//W3C//DTD SVG 1.1//EN" "http://www.w3.org/Graphics/SVG/1.1/DTD/svg11.dtd">
<svg xmlns="http://www.w3.org/2000/svg" xmlns:xlink="http://www.w3.org/1999/xlink" version="1.1" id="Capa_1" x="0px" y="0px" viewBox="0 0 295.108 295.108" style="enable-background:new 0 0 295.108 295.108;" xml:space="preserve" width="512px" height="512px">
<g>
	<path d="M149.723,136.71l57.689-25.089c3.902-1.697,8.191-2.611,12.548-2.611c4.344,0,8.565,0.878,12.549,2.611l27.094,11.783   c-6.3-17.532-22.359-30.399-41.628-32.066c1.294-5.093,1.986-10.426,1.986-15.922c0-35.607-28.866-64.473-64.473-64.473   c-24.779,0-46.28,13.986-57.073,34.488c-2.412-0.377-4.882-0.577-7.399-0.577c-25.925,0-46.987,20.766-47.493,46.569   C19.057,94.032,0,114.733,0,139.889c0,26.923,21.825,48.748,48.748,48.748h85.546c-1.487-6.69-2.611-13.305-3.3-19.709   C129.514,155.152,137.068,142.213,149.723,136.71z" fill="#FFFFFF"/>
	<path d="M284.614,149.548l-57.689-25.089c-2.221-0.966-4.593-1.449-6.965-1.449c-2.372,0-4.744,0.483-6.965,1.449l-57.689,25.089   c-6.999,3.044-11.208,10.295-10.393,17.883c5.404,50.294,39.774,116.732,75.047,116.732c35.273,0,69.643-66.438,75.047-116.732   C295.823,159.835,291.621,152.596,284.614,149.548z M271.968,176.495c-3.491,35.496-25.39,85.394-52.008,85.394   c-26.618,0-48.518-49.897-52.009-85.394c-0.533-5.422,2.624-10.541,7.714-12.485l39.977-15.275c1.39-0.531,2.854-0.797,4.318-0.797   c1.464,0,2.928,0.266,4.318,0.797l39.976,15.275C269.352,165.957,272.503,171.065,271.968,176.495z" fill="#FFFFFF"/>
	<path d="M183.119,177.219c1.905,15.894,7.691,34.113,15.328,48.092c8.7,15.926,17.027,21.577,21.513,21.577h0v-83.746l0,0   L183.119,177.219z" fill="#FFFFFF"/>
</g>
<g>
</g>
<g>
</g>
<g>
</g>
<g>
</g>
<g>
</g>
<g>
</g>
<g>
</g>
<g>
</g>
<g>
</g>
<g>
</g>
<g>
</g>
<g>
</g>
<g>
</g>
<g>
</g>
<g>
</g>
</svg>
